<svg width="474" height="32" viewBox="0 0 474 32" fill="none" xmlns="http://www.w3.org/2000/svg">
<g filter="url(#filter0_b_1_2)">
<path d="M2.24 30.88C1.94667 30.88 1.68 30.7867 1.44 30.6C1.22667 30.44 1.09333 30.2 1.04 29.88C0.853334 28.6 0.693334 27.3333 0.56 26.08C0.453333 24.8 0.4 23.5467 0.4 22.32C0.4 20.3467 0.56 18.4267 0.88 16.56C1.2 14.6667 1.69333 12.8533 2.36 11.12C3.18667 9.01333 4.26667 7.18667 5.6 5.64C6.93333 4.06667 8.45333 2.84 10.16 1.96C11.8933 1.08 13.76 0.639999 15.76 0.639999C17.7867 0.639999 19.68 1.10667 21.44 2.04C23.2 2.97333 24.7467 4.24 26.08 5.84C27.44 7.41333 28.4933 9.2 29.24 11.2C29.9333 12.9067 30.44 14.7467 30.76 16.72C31.08 18.6667 31.24 20.6667 31.24 22.72C31.24 23.92 31.1867 25.12 31.08 26.32C31 27.4933 30.8667 28.6667 30.68 29.84C30.6533 30.2133 30.5067 30.48 30.24 30.64C30 30.8 29.7467 30.88 29.48 30.88C29.16 30.88 28.8533 30.7467 28.56 30.48C28.2933 30.24 28.2 29.92 28.28 29.52C28.4133 28.5067 28.52 27.48 28.6 26.44C28.68 25.3733 28.72 24.32 28.72 23.28C28.72 21.2267 28.56 19.2267 28.24 17.28C27.92 15.3067 27.4133 13.5067 26.72 11.88C26.0533 10.2267 25.16 8.74667 24.04 7.44C22.92 6.13333 21.64 5.10667 20.2 4.36C18.7867 3.58667 17.2533 3.2 15.6 3.2C14 3.2 12.5333 3.56 11.2 4.28C9.86667 4.97333 8.68 5.93333 7.64 7.16C6.62667 8.38667 5.76 9.78667 5.04 11.36C4.34667 12.9067 3.82667 14.5333 3.48 16.24H25.36C25.7867 16.24 26.0933 16.3733 26.28 16.64C26.4667 16.88 26.56 17.1467 26.56 17.44C26.56 17.7333 26.4533 18.0133 26.24 18.28C26.0267 18.52 25.7333 18.64 25.36 18.64H3.08C3.02667 19.12 2.97333 19.6533 2.92 20.24C2.89333 20.8267 2.88 21.4533 2.88 22.12C2.88 23.4 2.93333 24.7067 3.04 26.04C3.14667 27.3733 3.26667 28.52 3.4 29.48C3.45333 29.9333 3.34667 30.28 3.08 30.52C2.81333 30.76 2.53333 30.88 2.24 30.88ZM38.945 31.28C38.1983 31.28 37.785 30.8933 37.705 30.12L36.825 2.68C36.825 1.98667 37.185 1.58666 37.905 1.48C38.1717 1.42667 38.425 1.48 38.665 1.64C38.9317 1.77333 39.105 2.01333 39.185 2.36C40.865 1.69333 42.545 1.2 44.225 0.879999C45.905 0.559998 47.5183 0.399998 49.065 0.399998C51.1983 0.399998 53.185 0.679998 55.025 1.24C56.8917 1.77333 58.5183 2.56 59.905 3.6C61.2917 4.61333 62.3717 5.84 63.145 7.28C63.9183 8.69333 64.305 10.28 64.305 12.04C64.305 12.7867 64.225 13.56 64.065 14.36C63.9317 15.1333 63.705 15.9467 63.385 16.8C62.6917 18.6667 61.6117 20.1733 60.145 21.32C58.705 22.4667 57.0383 23.3467 55.145 23.96L60.065 28.32C60.3583 28.5333 60.505 28.8133 60.505 29.16C60.505 29.48 60.385 29.76 60.145 30C59.8783 30.2667 59.585 30.4 59.265 30.4C58.9983 30.4 58.7317 30.2933 58.465 30.08L52.345 24.68C50.825 24.92 49.2383 25.04 47.585 25.04C46.2783 25.04 44.985 24.9733 43.705 24.84C42.425 24.7067 41.1717 24.5333 39.945 24.32L40.105 30.04C40.105 30.4933 39.985 30.8133 39.745 31C39.505 31.1867 39.2383 31.28 38.945 31.28ZM39.865 21.88C41.1183 22.0933 42.3717 22.2667 43.625 22.4C44.8783 22.5067 46.105 22.56 47.305 22.56C49.4117 22.56 51.3717 22.36 53.185 21.96C54.9983 21.5333 56.5717 20.8667 57.905 19.96C59.265 19.0267 60.2517 17.8 60.865 16.28C61.185 15.5333 61.4117 14.8133 61.545 14.12C61.705 13.4267 61.785 12.7733 61.785 12.16C61.785 10.2133 61.185 8.54667 59.985 7.16C58.8117 5.77333 57.2383 4.70667 55.265 3.96C53.2917 3.18667 51.1183 2.8 48.745 2.8C47.225 2.8 45.6517 2.97333 44.025 3.32C42.425 3.66667 40.8517 4.2 39.305 4.92L39.865 21.88ZM72.2106 31.04C71.4106 31.1733 70.9306 30.8533 70.7706 30.08C70.184 27.12 69.7573 24.24 69.4906 21.44C69.224 18.6133 69.0906 15.7067 69.0906 12.72C69.0906 11.0933 69.1173 9.42667 69.1706 7.72C69.2506 6.01333 69.344 4.24 69.4506 2.4C69.4506 1.97333 69.5973 1.66667 69.8906 1.48C70.184 1.29333 70.464 1.22667 70.7306 1.28C71.0773 1.30666 71.3573 1.44 71.5706 1.68C71.8106 1.89333 71.904 2.18667 71.8506 2.56C71.7973 3.44 71.744 4.54667 71.6906 5.88C71.6373 7.21333 71.584 8.58667 71.5306 10C71.504 11.3867 71.4906 12.6133 71.4906 13.68C71.4906 14.0267 71.4906 14.36 71.4906 14.68C71.4906 15 71.504 15.2667 71.5306 15.48H93.0106C93.464 15.48 93.7706 15.6133 93.9306 15.88C94.1173 16.12 94.2106 16.3867 94.2106 16.68C94.2106 17.0267 94.104 17.32 93.8906 17.56C93.6773 17.7733 93.384 17.88 93.0106 17.88H71.6506C71.784 19.8267 71.9706 21.8667 72.2106 24C72.4773 26.1067 72.784 27.9733 73.1306 29.6C73.2106 30 73.144 30.32 72.9306 30.56C72.7173 30.8 72.4773 30.96 72.2106 31.04ZM95.8106 31.04C95.4906 30.9867 95.2106 30.84 94.9706 30.6C94.7306 30.36 94.6506 30.0667 94.7306 29.72C94.9706 26.76 95.144 23.7333 95.2506 20.64C95.3573 17.5467 95.4106 14.3067 95.4106 10.92C95.4106 9.64 95.3973 8.33333 95.3706 7C95.3706 5.66666 95.3573 4.30666 95.3306 2.92C95.3306 2.52 95.464 2.22667 95.7306 2.04C95.9973 1.82667 96.264 1.70667 96.5306 1.68C96.8773 1.68 97.1573 1.78666 97.3706 2C97.6106 2.21333 97.7306 2.50667 97.7306 2.88C97.7573 4.26667 97.7706 5.64 97.7706 7C97.7973 8.33333 97.8106 9.62667 97.8106 10.88C97.8106 14.2933 97.7573 17.56 97.6506 20.68C97.544 23.7733 97.3573 26.8533 97.0906 29.92C97.0906 30.3467 96.944 30.64 96.6506 30.8C96.384 30.96 96.104 31.04 95.8106 31.04ZM105.248 30.88C104.954 30.88 104.688 30.7867 104.448 30.6C104.234 30.44 104.101 30.2 104.048 29.88C103.861 28.6 103.701 27.3333 103.568 26.08C103.461 24.8 103.408 23.5467 103.408 22.32C103.408 20.3467 103.568 18.4267 103.888 16.56C104.208 14.6667 104.701 12.8533 105.368 11.12C106.194 9.01333 107.274 7.18667 108.608 5.64C109.941 4.06667 111.461 2.84 113.168 1.96C114.901 1.08 116.768 0.639999 118.768 0.639999C120.794 0.639999 122.688 1.10667 124.448 2.04C126.208 2.97333 127.754 4.24 129.088 5.84C130.448 7.41333 131.501 9.2 132.248 11.2C132.941 12.9067 133.448 14.7467 133.768 16.72C134.088 18.6667 134.248 20.6667 134.248 22.72C134.248 23.92 134.194 25.12 134.088 26.32C134.008 27.4933 133.874 28.6667 133.688 29.84C133.661 30.2133 133.514 30.48 133.248 30.64C133.008 30.8 132.754 30.88 132.488 30.88C132.168 30.88 131.861 30.7467 131.568 30.48C131.301 30.24 131.208 29.92 131.288 29.52C131.421 28.5067 131.528 27.48 131.608 26.44C131.688 25.3733 131.728 24.32 131.728 23.28C131.728 21.2267 131.568 19.2267 131.248 17.28C130.928 15.3067 130.421 13.5067 129.728 11.88C129.061 10.2267 128.168 8.74667 127.048 7.44C125.928 6.13333 124.648 5.10667 123.208 4.36C121.794 3.58667 120.261 3.2 118.608 3.2C117.008 3.2 115.541 3.56 114.208 4.28C112.874 4.97333 111.688 5.93333 110.648 7.16C109.634 8.38667 108.768 9.78667 108.048 11.36C107.354 12.9067 106.834 14.5333 106.488 16.24H128.368C128.794 16.24 129.101 16.3733 129.288 16.64C129.474 16.88 129.568 17.1467 129.568 17.44C129.568 17.7333 129.461 18.0133 129.248 18.28C129.034 18.52 128.741 18.64 128.368 18.64H106.088C106.034 19.12 105.981 19.6533 105.928 20.24C105.901 20.8267 105.888 21.4533 105.888 22.12C105.888 23.4 105.941 24.7067 106.048 26.04C106.154 27.3733 106.274 28.52 106.408 29.48C106.461 29.9333 106.354 30.28 106.088 30.52C105.821 30.76 105.541 30.88 105.248 30.88ZM168.593 30.6C168.406 30.6 168.273 30.5733 168.193 30.52C167.633 30.3067 167.353 29.9467 167.353 29.44C167.353 29.3867 167.353 29.32 167.353 29.24C167.379 29.16 167.406 29.08 167.433 29C168.206 26.7067 168.846 24.3333 169.353 21.88C169.859 19.4267 170.113 17.1067 170.113 14.92C170.113 14.68 170.113 14.44 170.113 14.2C170.113 13.96 170.099 13.7333 170.073 13.52C169.993 12 169.713 10.6 169.233 9.32C168.779 8.04 168.139 6.98667 167.313 6.16C166.513 5.30667 165.526 4.81333 164.353 4.68C163.286 4.57333 162.299 4.77333 161.393 5.28C160.513 5.78667 159.766 6.50667 159.153 7.44C158.566 8.34667 158.153 9.38667 157.913 10.56C157.833 10.9333 157.673 11.2133 157.433 11.4C157.219 11.5867 156.993 11.6667 156.753 11.64C156.459 11.64 156.193 11.52 155.953 11.28C155.739 11.04 155.606 10.7467 155.553 10.4C155.259 9.12 154.779 7.97333 154.113 6.96C153.473 5.92 152.699 5.10667 151.793 4.52C150.913 3.90667 149.926 3.6 148.833 3.6C147.553 3.6 146.459 4.04 145.553 4.92C144.673 5.8 143.979 6.93333 143.473 8.32C142.966 9.68 142.633 11.0933 142.473 12.56C142.419 13.0133 142.379 13.48 142.353 13.96C142.326 14.4133 142.313 14.8933 142.313 15.4C142.313 17.5067 142.526 19.7333 142.953 22.08C143.406 24.4267 143.966 26.7467 144.633 29.04C144.659 29.12 144.673 29.1867 144.673 29.24C144.699 29.32 144.713 29.3867 144.713 29.44C144.713 29.7333 144.619 29.9733 144.433 30.16C144.246 30.3467 144.046 30.4667 143.833 30.52C143.779 30.5467 143.713 30.56 143.633 30.56C143.553 30.56 143.486 30.56 143.433 30.56C142.926 30.56 142.566 30.28 142.353 29.72C141.606 27.3467 140.993 24.9067 140.513 22.4C140.059 19.8667 139.833 17.44 139.833 15.12C139.833 14.5333 139.846 13.96 139.873 13.4C139.926 12.84 139.979 12.3067 140.033 11.8C140.219 10.0933 140.633 8.48 141.273 6.96C141.939 5.41333 142.806 4.12 143.873 3.08C144.966 2.04 146.219 1.42666 147.633 1.24C148.086 1.16 148.539 1.12 148.993 1.12C150.726 1.12 152.299 1.62667 153.713 2.64C155.153 3.65333 156.246 4.94667 156.993 6.52C157.686 5.05333 158.659 3.93333 159.913 3.16C161.166 2.36 162.486 1.96 163.873 1.96C165.233 1.96 166.539 2.36 167.793 3.16C169.073 3.93333 170.139 5.14667 170.993 6.8C171.873 8.42667 172.379 10.5467 172.513 13.16C172.539 13.4 172.553 13.6533 172.553 13.92C172.553 14.16 172.553 14.4133 172.553 14.68C172.553 17.0533 172.286 19.5733 171.753 22.24C171.219 24.9067 170.526 27.4267 169.673 29.8C169.593 30.0667 169.446 30.2667 169.233 30.4C169.019 30.5333 168.806 30.6 168.593 30.6ZM206.039 31.04C205.239 31.1733 204.759 30.8533 204.599 30.08C204.012 27.12 203.585 24.24 203.319 21.44C203.052 18.6133 202.919 15.7067 202.919 12.72C202.919 11.0933 202.945 9.42667 202.999 7.72C203.079 6.01333 203.172 4.24 203.279 2.4C203.279 1.97333 203.425 1.66667 203.719 1.48C204.012 1.29333 204.292 1.22667 204.559 1.28C204.905 1.30666 205.185 1.44 205.399 1.68C205.639 1.89333 205.732 2.18667 205.679 2.56C205.625 3.44 205.572 4.54667 205.519 5.88C205.465 7.21333 205.412 8.58667 205.359 10C205.332 11.3867 205.319 12.6133 205.319 13.68C205.319 14.0267 205.319 14.36 205.319 14.68C205.319 15 205.332 15.2667 205.359 15.48H226.839C227.292 15.48 227.599 15.6133 227.759 15.88C227.945 16.12 228.039 16.3867 228.039 16.68C228.039 17.0267 227.932 17.32 227.719 17.56C227.505 17.7733 227.212 17.88 226.839 17.88H205.479C205.612 19.8267 205.799 21.8667 206.039 24C206.305 26.1067 206.612 27.9733 206.959 29.6C207.039 30 206.972 30.32 206.759 30.56C206.545 30.8 206.305 30.96 206.039 31.04ZM229.639 31.04C229.319 30.9867 229.039 30.84 228.799 30.6C228.559 30.36 228.479 30.0667 228.559 29.72C228.799 26.76 228.972 23.7333 229.079 20.64C229.185 17.5467 229.239 14.3067 229.239 10.92C229.239 9.64 229.225 8.33333 229.199 7C229.199 5.66666 229.185 4.30666 229.159 2.92C229.159 2.52 229.292 2.22667 229.559 2.04C229.825 1.82667 230.092 1.70667 230.359 1.68C230.705 1.68 230.985 1.78666 231.199 2C231.439 2.21333 231.559 2.50667 231.559 2.88C231.585 4.26667 231.599 5.64 231.599 7C231.625 8.33333 231.639 9.62667 231.639 10.88C231.639 14.2933 231.585 17.56 231.479 20.68C231.372 23.7733 231.185 26.8533 230.919 29.92C230.919 30.3467 230.772 30.64 230.479 30.8C230.212 30.96 229.932 31.04 229.639 31.04ZM239.076 30.88C238.783 30.88 238.516 30.7867 238.276 30.6C238.063 30.44 237.929 30.2 237.876 29.88C237.689 28.6 237.529 27.3333 237.396 26.08C237.289 24.8 237.236 23.5467 237.236 22.32C237.236 20.3467 237.396 18.4267 237.716 16.56C238.036 14.6667 238.529 12.8533 239.196 11.12C240.023 9.01333 241.103 7.18667 242.436 5.64C243.769 4.06667 245.289 2.84 246.996 1.96C248.729 1.08 250.596 0.639999 252.596 0.639999C254.623 0.639999 256.516 1.10667 258.276 2.04C260.036 2.97333 261.583 4.24 262.916 5.84C264.276 7.41333 265.329 9.2 266.076 11.2C266.769 12.9067 267.276 14.7467 267.596 16.72C267.916 18.6667 268.076 20.6667 268.076 22.72C268.076 23.92 268.023 25.12 267.916 26.32C267.836 27.4933 267.703 28.6667 267.516 29.84C267.489 30.2133 267.343 30.48 267.076 30.64C266.836 30.8 266.583 30.88 266.316 30.88C265.996 30.88 265.689 30.7467 265.396 30.48C265.129 30.24 265.036 29.92 265.116 29.52C265.249 28.5067 265.356 27.48 265.436 26.44C265.516 25.3733 265.556 24.32 265.556 23.28C265.556 21.2267 265.396 19.2267 265.076 17.28C264.756 15.3067 264.249 13.5067 263.556 11.88C262.889 10.2267 261.996 8.74667 260.876 7.44C259.756 6.13333 258.476 5.10667 257.036 4.36C255.623 3.58667 254.089 3.2 252.436 3.2C250.836 3.2 249.369 3.56 248.036 4.28C246.703 4.97333 245.516 5.93333 244.476 7.16C243.463 8.38667 242.596 9.78667 241.876 11.36C241.183 12.9067 240.663 14.5333 240.316 16.24H262.196C262.623 16.24 262.929 16.3733 263.116 16.64C263.303 16.88 263.396 17.1467 263.396 17.44C263.396 17.7333 263.289 18.0133 263.076 18.28C262.863 18.52 262.569 18.64 262.196 18.64H239.916C239.863 19.12 239.809 19.6533 239.756 20.24C239.729 20.8267 239.716 21.4533 239.716 22.12C239.716 23.4 239.769 24.7067 239.876 26.04C239.983 27.3733 240.103 28.52 240.236 29.48C240.289 29.9333 240.183 30.28 239.916 30.52C239.649 30.76 239.369 30.88 239.076 30.88ZM275.421 30.88C275.128 30.88 274.848 30.7867 274.581 30.6C274.341 30.4133 274.194 30.1333 274.141 29.76C273.981 27.7867 273.861 25.6933 273.781 23.48C273.701 21.2667 273.661 19.0267 273.661 16.76C273.661 14.3333 273.701 11.92 273.781 9.52C273.861 7.09333 273.981 4.78667 274.141 2.6C274.194 2.14667 274.354 1.84 274.621 1.68C274.888 1.49333 275.154 1.42667 275.421 1.48C275.901 1.56 276.221 1.74667 276.381 2.04C276.541 2.30666 276.594 2.64 276.541 3.04C277.741 4.24 278.794 5.30666 279.701 6.24C280.608 7.14666 281.474 8.01333 282.301 8.84C283.128 9.66667 284.008 10.56 284.941 11.52C285.874 12.4533 286.941 13.5333 288.141 14.76C289.341 15.9867 290.768 17.4533 292.421 19.16C294.101 20.84 296.101 22.8667 298.421 25.24C298.634 23.1867 298.794 21.0267 298.901 18.76C299.034 16.4933 299.101 14.1867 299.101 11.84C299.101 10.2933 299.074 8.76 299.021 7.24C298.968 5.72 298.901 4.22667 298.821 2.76C298.794 2.38667 298.901 2.08 299.141 1.84C299.381 1.6 299.701 1.48 300.101 1.48C300.368 1.48 300.608 1.57333 300.821 1.76C301.061 1.94667 301.194 2.22666 301.221 2.6C301.328 4.14667 301.408 5.66667 301.461 7.16C301.514 8.62667 301.541 10.1067 301.541 11.6C301.541 14.5333 301.434 17.48 301.221 20.44C301.008 23.3733 300.714 26.4267 300.341 29.6C300.314 29.9733 300.181 30.24 299.941 30.4C299.701 30.5867 299.448 30.68 299.181 30.68C298.781 30.68 298.461 30.5333 298.221 30.24C297.981 29.9733 297.888 29.6667 297.941 29.32C297.941 29.2133 297.954 29.04 297.981 28.8C298.008 28.56 298.034 28.4 298.061 28.32L276.341 6.16C276.234 7.84 276.154 9.53333 276.101 11.24C276.048 12.9467 276.021 14.6533 276.021 16.36C276.021 18.5733 276.061 20.7867 276.141 23C276.248 25.2133 276.381 27.4 276.541 29.56C276.594 29.9867 276.488 30.2933 276.221 30.48C275.981 30.6933 275.714 30.8267 275.421 30.88ZM317.838 31.52C315.758 31.52 313.611 31.32 311.398 30.92C311.051 30.84 310.798 30.68 310.638 30.44C310.531 30.6533 310.358 30.7867 310.118 30.84C309.878 30.92 309.624 30.9467 309.358 30.92C308.744 30.7067 308.438 30.32 308.438 29.76L307.958 2.84C307.958 2.44 308.091 2.13333 308.358 1.92C308.624 1.70667 308.904 1.6 309.198 1.6C309.491 1.6 309.731 1.69333 309.918 1.88C310.078 1.72 310.251 1.64 310.438 1.64C311.478 1.45333 312.518 1.32 313.558 1.24C314.624 1.13333 315.664 1.08 316.678 1.08C319.318 1.08 321.798 1.44 324.118 2.16C326.438 2.85333 328.478 3.88 330.238 5.24C331.998 6.6 333.371 8.25333 334.358 10.2C335.344 12.1467 335.838 14.3467 335.838 16.8C335.838 19.12 335.371 21.2 334.438 23.04C333.504 24.8533 332.211 26.3867 330.558 27.64C328.904 28.8933 326.984 29.8533 324.798 30.52C322.638 31.1867 320.318 31.52 317.838 31.52ZM318.078 29.24C320.211 29.24 322.211 28.96 324.078 28.4C325.944 27.84 327.584 27.0267 328.998 25.96C330.411 24.8667 331.518 23.5467 332.318 22C333.118 20.4533 333.518 18.7067 333.518 16.76C333.518 14.6533 333.078 12.7733 332.198 11.12C331.318 9.46667 330.104 8.06667 328.558 6.92C327.038 5.74667 325.278 4.86666 323.278 4.28C321.278 3.66666 319.158 3.36 316.918 3.36C314.971 3.36 313.011 3.56 311.038 3.96C311.011 3.96 310.958 3.97333 310.878 4C310.824 4 310.771 4 310.718 4C310.584 4 310.464 3.97333 310.358 3.92L310.838 28.84C311.104 28.5733 311.464 28.48 311.918 28.56C314.051 29.0133 316.104 29.24 318.078 29.24ZM369.413 30.6C369.226 30.6 369.093 30.5733 369.013 30.52C368.453 30.3067 368.173 29.9467 368.173 29.44C368.173 29.3867 368.173 29.32 368.173 29.24C368.2 29.16 368.226 29.08 368.253 29C369.026 26.7067 369.666 24.3333 370.173 21.88C370.68 19.4267 370.933 17.1067 370.933 14.92C370.933 14.68 370.933 14.44 370.933 14.2C370.933 13.96 370.92 13.7333 370.893 13.52C370.813 12 370.533 10.6 370.053 9.32C369.6 8.04 368.96 6.98667 368.133 6.16C367.333 5.30667 366.346 4.81333 365.173 4.68C364.106 4.57333 363.12 4.77333 362.213 5.28C361.333 5.78667 360.586 6.50667 359.973 7.44C359.386 8.34667 358.973 9.38667 358.733 10.56C358.653 10.9333 358.493 11.2133 358.253 11.4C358.04 11.5867 357.813 11.6667 357.573 11.64C357.28 11.64 357.013 11.52 356.773 11.28C356.56 11.04 356.426 10.7467 356.373 10.4C356.08 9.12 355.6 7.97333 354.933 6.96C354.293 5.92 353.52 5.10667 352.613 4.52C351.733 3.90667 350.746 3.6 349.653 3.6C348.373 3.6 347.28 4.04 346.373 4.92C345.493 5.8 344.8 6.93333 344.293 8.32C343.786 9.68 343.453 11.0933 343.293 12.56C343.24 13.0133 343.2 13.48 343.173 13.96C343.146 14.4133 343.133 14.8933 343.133 15.4C343.133 17.5067 343.346 19.7333 343.773 22.08C344.226 24.4267 344.786 26.7467 345.453 29.04C345.48 29.12 345.493 29.1867 345.493 29.24C345.52 29.32 345.533 29.3867 345.533 29.44C345.533 29.7333 345.44 29.9733 345.253 30.16C345.066 30.3467 344.866 30.4667 344.653 30.52C344.6 30.5467 344.533 30.56 344.453 30.56C344.373 30.56 344.306 30.56 344.253 30.56C343.746 30.56 343.386 30.28 343.173 29.72C342.426 27.3467 341.813 24.9067 341.333 22.4C340.88 19.8667 340.653 17.44 340.653 15.12C340.653 14.5333 340.666 13.96 340.693 13.4C340.746 12.84 340.8 12.3067 340.853 11.8C341.04 10.0933 341.453 8.48 342.093 6.96C342.76 5.41333 343.626 4.12 344.693 3.08C345.786 2.04 347.04 1.42666 348.453 1.24C348.906 1.16 349.36 1.12 349.813 1.12C351.546 1.12 353.12 1.62667 354.533 2.64C355.973 3.65333 357.066 4.94667 357.813 6.52C358.506 5.05333 359.48 3.93333 360.733 3.16C361.986 2.36 363.306 1.96 364.693 1.96C366.053 1.96 367.36 2.36 368.613 3.16C369.893 3.93333 370.96 5.14667 371.813 6.8C372.693 8.42667 373.2 10.5467 373.333 13.16C373.36 13.4 373.373 13.6533 373.373 13.92C373.373 14.16 373.373 14.4133 373.373 14.68C373.373 17.0533 373.106 19.5733 372.573 22.24C372.04 24.9067 371.346 27.4267 370.493 29.8C370.413 30.0667 370.266 30.2667 370.053 30.4C369.84 30.5333 369.626 30.6 369.413 30.6ZM380.795 30.88C380.501 30.88 380.235 30.7867 379.995 30.6C379.781 30.44 379.648 30.2 379.595 29.88C379.408 28.6 379.248 27.3333 379.115 26.08C379.008 24.8 378.955 23.5467 378.955 22.32C378.955 20.3467 379.115 18.4267 379.435 16.56C379.755 14.6667 380.248 12.8533 380.915 11.12C381.741 9.01333 382.821 7.18667 384.155 5.64C385.488 4.06667 387.008 2.84 388.715 1.96C390.448 1.08 392.315 0.639999 394.315 0.639999C396.341 0.639999 398.235 1.10667 399.995 2.04C401.755 2.97333 403.301 4.24 404.635 5.84C405.995 7.41333 407.048 9.2 407.795 11.2C408.488 12.9067 408.995 14.7467 409.315 16.72C409.635 18.6667 409.795 20.6667 409.795 22.72C409.795 23.92 409.741 25.12 409.635 26.32C409.555 27.4933 409.421 28.6667 409.235 29.84C409.208 30.2133 409.061 30.48 408.795 30.64C408.555 30.8 408.301 30.88 408.035 30.88C407.715 30.88 407.408 30.7467 407.115 30.48C406.848 30.24 406.755 29.92 406.835 29.52C406.968 28.5067 407.075 27.48 407.155 26.44C407.235 25.3733 407.275 24.32 407.275 23.28C407.275 21.2267 407.115 19.2267 406.795 17.28C406.475 15.3067 405.968 13.5067 405.275 11.88C404.608 10.2267 403.715 8.74667 402.595 7.44C401.475 6.13333 400.195 5.10667 398.755 4.36C397.341 3.58667 395.808 3.2 394.155 3.2C392.555 3.2 391.088 3.56 389.755 4.28C388.421 4.97333 387.235 5.93333 386.195 7.16C385.181 8.38667 384.315 9.78667 383.595 11.36C382.901 12.9067 382.381 14.5333 382.035 16.24H403.915C404.341 16.24 404.648 16.3733 404.835 16.64C405.021 16.88 405.115 17.1467 405.115 17.44C405.115 17.7333 405.008 18.0133 404.795 18.28C404.581 18.52 404.288 18.64 403.915 18.64H381.635C381.581 19.12 381.528 19.6533 381.475 20.24C381.448 20.8267 381.435 21.4533 381.435 22.12C381.435 23.4 381.488 24.7067 381.595 26.04C381.701 27.3733 381.821 28.52 381.955 29.48C382.008 29.9333 381.901 30.28 381.635 30.52C381.368 30.76 381.088 30.88 380.795 30.88ZM425.26 31.52C423.18 31.52 421.033 31.32 418.82 30.92C418.473 30.84 418.22 30.68 418.06 30.44C417.953 30.6533 417.78 30.7867 417.54 30.84C417.3 30.92 417.046 30.9467 416.78 30.92C416.166 30.7067 415.86 30.32 415.86 29.76L415.38 2.84C415.38 2.44 415.513 2.13333 415.78 1.92C416.046 1.70667 416.326 1.6 416.62 1.6C416.913 1.6 417.153 1.69333 417.34 1.88C417.5 1.72 417.673 1.64 417.86 1.64C418.9 1.45333 419.94 1.32 420.98 1.24C422.046 1.13333 423.086 1.08 424.1 1.08C426.74 1.08 429.22 1.44 431.54 2.16C433.86 2.85333 435.9 3.88 437.66 5.24C439.42 6.6 440.793 8.25333 441.78 10.2C442.766 12.1467 443.26 14.3467 443.26 16.8C443.26 19.12 442.793 21.2 441.86 23.04C440.926 24.8533 439.633 26.3867 437.98 27.64C436.326 28.8933 434.406 29.8533 432.22 30.52C430.06 31.1867 427.74 31.52 425.26 31.52ZM425.5 29.24C427.633 29.24 429.633 28.96 431.5 28.4C433.366 27.84 435.006 27.0267 436.42 25.96C437.833 24.8667 438.94 23.5467 439.74 22C440.54 20.4533 440.94 18.7067 440.94 16.76C440.94 14.6533 440.5 12.7733 439.62 11.12C438.74 9.46667 437.526 8.06667 435.98 6.92C434.46 5.74667 432.7 4.86666 430.7 4.28C428.7 3.66666 426.58 3.36 424.34 3.36C422.393 3.36 420.433 3.56 418.46 3.96C418.433 3.96 418.38 3.97333 418.3 4C418.246 4 418.193 4 418.14 4C418.006 4 417.886 3.97333 417.78 3.92L418.26 28.84C418.526 28.5733 418.886 28.48 419.34 28.56C421.473 29.0133 423.526 29.24 425.5 29.24ZM457.715 31.36C455.982 31.36 454.542 31.24 453.395 31C452.248 30.7867 451.328 30.3733 450.635 29.76C449.968 29.1733 449.462 28.36 449.115 27.32C448.768 26.2533 448.515 24.8933 448.355 23.24C448.248 22.4667 448.168 21.68 448.115 20.88C448.088 20.0533 448.075 19.2267 448.075 18.4C448.075 16.2667 448.195 14.04 448.435 11.72C448.675 9.37333 448.928 6.90667 449.195 4.32C448.822 4.32 448.542 4.17333 448.355 3.88C448.168 3.58667 448.088 3.32 448.115 3.08C448.115 2.76 448.208 2.49333 448.395 2.28C448.608 2.04 448.902 1.92 449.275 1.92L472.195 1.44C472.622 1.44 472.928 1.56 473.115 1.8C473.302 2.04 473.395 2.30667 473.395 2.6C473.448 2.92 473.368 3.21333 473.155 3.48C472.968 3.72 472.662 3.84 472.235 3.84L451.635 4.24C451.368 6.34666 451.128 8.64 450.915 11.12C450.728 13.5733 450.635 15.92 450.635 18.16C450.635 19.1467 450.648 20.0933 450.675 21C450.728 21.9067 450.808 22.7467 450.915 23.52C451.075 25.0667 451.382 26.24 451.835 27.04C452.288 27.84 452.942 28.3733 453.795 28.64C454.648 28.9067 455.755 29.04 457.115 29.04C458.475 29.04 460.035 28.9867 461.795 28.88C463.555 28.7733 465.328 28.6133 467.115 28.4C468.928 28.2133 470.555 28.0133 471.995 27.8C472.448 27.6933 472.795 27.7867 473.035 28.08C473.275 28.4 473.395 28.7067 473.395 29C473.395 29.3467 473.302 29.6 473.115 29.76C472.928 29.9467 472.688 30.0667 472.395 30.12C470.848 30.36 469.475 30.56 468.275 30.72C467.102 30.88 465.982 31 464.915 31.08C463.848 31.1867 462.742 31.2533 461.595 31.28C460.448 31.3333 459.155 31.36 457.715 31.36ZM453.195 17.2C452.795 17.2 452.502 17.08 452.315 16.84C452.128 16.5733 452.008 16.3067 451.955 16.04C451.955 15.72 452.062 15.44 452.275 15.2C452.488 14.9333 452.782 14.8 453.155 14.8L471.155 14.36C471.582 14.36 471.888 14.48 472.075 14.72C472.288 14.96 472.395 15.2267 472.395 15.52C472.395 15.8667 472.288 16.16 472.075 16.4C471.888 16.64 471.608 16.76 471.235 16.76L453.195 17.2Z" fill="url(#paint0_linear_1_2)"/>
</g>
<defs>
<filter id="filter0_b_1_2" x="-3.60001" y="-3.60001" width="481.075" height="39.12" filterUnits="userSpaceOnUse" color-interpolation-filters="sRGB">
<feFlood flood-opacity="0" result="BackgroundImageFix"/>
<feGaussianBlur in="BackgroundImageFix" stdDeviation="2"/>
<feComposite in2="SourceAlpha" operator="in" result="effect1_backgroundBlur_1_2"/>
<feBlend mode="normal" in="SourceGraphic" in2="effect1_backgroundBlur_1_2" result="shape"/>
</filter>
<linearGradient id="paint0_linear_1_2" x1="7.5" y1="12.5" x2="479.5" y2="17.5" gradientUnits="userSpaceOnUse">
<stop stop-color="#FF38BB"/>
<stop offset="0.331005" stop-color="#FC09A9"/>
<stop offset="0.608014" stop-color="#FF0070" stop-opacity="0.7"/>
<stop offset="0.820873" stop-color="#FF5858"/>
</linearGradient>
</defs>
</svg>
